<svg width="210" height="200" fill="none" xmlns="http://www.w3.org/2000/svg"><path d="M209.063 99.223c.046 7.241-2.192 13.813-5.911 19.918-10.078 16.528-22.485 31.134-36.674 44.263-13.446 12.44-28.387 22.833-44.275 31.815-11.117 6.28-22.618 6.401-34.031.196-21.39-11.625-40.752-25.906-57.467-43.678a199.843 199.843 0 01-24.454-31.865c-8.396-13.571-8.295-27.138.066-40.71 9.21-14.94 20.543-28.127 33.15-40.258 13.664-13.15 28.838-24.332 45.378-33.54 12.498-6.956 25.406-7.244 38.147-.292C155.34 22.72 181.845 46.75 201.97 77.705c4.258 6.548 7.059 13.576 7.093 21.518z" fill="#fff"/><path d="M111.504 92.099h-13.81c-.492 0-.901.4-.901.902v22.09c0 .492.4.902.901.902h3.937c.48 0 .901-.422.901-.902v-7.843h7.339c.48 0 .902-.421.902-.901v-3.638a.926.926 0 00-.902-.902h-7.339v-4.271h8.972c.492 0 .901-.401.901-.902v-3.637c0-.493-.4-.894-.901-.894V92.1zM125.48 91.769c-6.75 0-12.24 5.52-12.24 12.31 0 6.79 5.373 12.243 12.24 12.243s12.273-5.374 12.273-12.243c0-6.87-5.506-12.31-12.273-12.31zm0 5.863c3.532 0 6.404 2.893 6.404 6.439 0 3.545-2.872 6.376-6.404 6.376a6.372 6.372 0 01-6.375-6.376c0-3.516 2.86-6.44 6.375-6.44zM148.945 101.494l-.397-.196c-2.154-1.044-3.49-1.887-3.49-2.865 0-.76.468-1.57 1.77-1.57 1.595 0 3.411 1.094 4.363 1.763.772.467 1.503.188 1.82-.314l1.711-2.58c.197-.338.259-1.103-.271-1.416-1.302-.952-3.974-2.555-7.293-2.555-3.961 0-7.969 2.371-7.969 6.906 0 4.067 3.131 5.922 6.621 7.613 2.083 1.01 3.285 1.85 3.285 3.132 0 1.023-.835 1.737-2.037 1.737-1.958 0-3.553-1.082-4.504-1.733l-.084-.059a1.133 1.133 0 00-.864-.179 1.017 1.017 0 00-.655.467l-1.537 2.706c-.267.501-.208.927.18 1.316.622.622 3.01 2.647 7.689 2.647 5.098 0 8.137-3.645 8.137-7.174.008-4.501-3.59-6.251-6.483-7.654l.008.008zM45.35 128.278v-5.187c0-2.839 2.425-4.576 5.418-4.576 2.993 0 5.402 1.737 5.402 4.576v5.187c0 2.839-2.425 4.597-5.402 4.597-2.993-.008-5.418-1.758-5.418-4.597zm3.456-4.949v4.715c0 1.382.868 2.108 1.97 2.108 1.103 0 1.97-.73 1.97-2.108v-4.715c0-1.382-.888-2.108-1.97-2.108-1.11-.009-1.97.726-1.97 2.108zM58.854 135.556a.754.754 0 01-.752-.752v-12.502a.75.75 0 01.752-.747h1.36c.435 0 .81.317.89.726l.038.238c.513-.589 1.536-1.161 2.617-1.161 2.663 0 3.507 1.362 3.507 4.001v3.432c0 2.639-.848 4-3.507 4-.948 0-1.891-.455-2.388-.947v2.956a.754.754 0 01-.751.752h-1.77l.004.004zm2.53-10.79v4.618c.434.455 1.023.773 1.536.773.81 0 1.081-.414 1.081-1.537v-3.073c0-1.124-.28-1.537-1.081-1.537-.514-.008-1.11.313-1.536.76v-.004zM73.778 132.792c-2.88 0-4.654-1.596-4.654-4.222v-2.977c0-2.619 1.778-4.243 4.654-4.243s4.634 1.616 4.634 4.243v1.302a.754.754 0 01-.752.752h-5.264v.927c0 1.244.493 1.72 1.382 1.72.948 0 1.323-.572 1.323-.985 0-.455.213-.647.648-.647h1.932c.414 0 .668.296.668.705.009 1.433-1.51 3.425-4.57 3.425zm-1.42-7.141v.125l2.802-.079v-.096c0-1.123-.455-1.737-1.382-1.737-.889 0-1.42.572-1.42 1.791v-.004zM81.013 132.595a.754.754 0 01-.752-.751v-9.546a.75.75 0 01.752-.748h1.381c.435 0 .81.318.869.748l.037.213c.63-.689 1.516-1.161 2.543-1.161 2.638 0 3.431 1.441 3.431 3.75v6.744a.753.753 0 01-.751.751h-1.779a.753.753 0 01-.751-.751v-6.506c0-.927-.259-1.341-1.044-1.341-.513 0-.985.318-1.42.773v7.082a.754.754 0 01-.75.752h-1.762v-.009h-.004zM95.227 127.785h1.95c.413 0 .688.28.688.689 0 .647.752 1.653 2.109 1.653 1.198 0 1.891-.647 1.891-1.616 0-.968-.948-1.244-2.067-1.361-2.521-.259-5.026-1.244-5.026-4.105v-.396c0-2.368 1.557-4.101 5.026-4.101s5.147 2.067 5.147 4.259c0 .414-.296.748-.713.748h-1.933c-.414 0-.689-.28-.689-.689 0-.689-.513-1.616-1.816-1.616-1.102 0-1.699.63-1.699 1.478 0 1.182 1.044 1.399 2.171 1.516 2.346.238 4.926 1.161 4.926 3.942v.472c0 2.501-1.758 4.184-5.227 4.184-3.469 0-5.46-1.95-5.46-4.318.008-.413.296-.748.714-.748l.008.009zM111.587 132.771c-2.88 0-4.654-1.595-4.654-4.222v-2.956c0-2.619 1.778-4.222 4.654-4.222 2.877 0 4.596 1.516 4.596 3.867a.735.735 0 01-.726.751h-1.837c-.434 0-.689-.296-.689-.751 0-.773-.396-1.324-1.34-1.324-.889 0-1.381.647-1.381 1.891v2.523c0 1.244.492 1.891 1.381 1.891.948 0 1.34-.551 1.34-1.34 0-.455.259-.752.689-.752h1.837c.413 0 .726.338.726.752 0 2.297-1.678 3.892-4.596 3.892zM117.916 128.57v-2.994c0-2.618 1.778-4.222 4.654-4.222s4.634 1.595 4.634 4.222v2.994c0 2.618-1.778 4.221-4.634 4.221-2.88 0-4.654-1.595-4.654-4.221zm3.272-2.777v2.56c0 1.244.493 1.891 1.382 1.891.889 0 1.361-.647 1.361-1.891v-2.56c0-1.244-.493-1.892-1.361-1.892s-1.382.648-1.382 1.892zM129.053 129.042v-6.744a.75.75 0 01.752-.748h1.778c.413 0 .751.339.751.748v6.51c0 .927.213 1.34.986 1.34.513 0 .964-.317 1.398-.772v-7.082a.75.75 0 01.747-.748h1.779a.75.75 0 01.747.748v9.545a.753.753 0 01-.747.752h-1.42a.852.852 0 01-.847-.752l-.021-.212c-.63.689-1.499 1.16-2.521 1.16-2.626 0-3.378-1.44-3.378-3.749l-.004.004zM140.116 128.674v-4.752h-.196a.754.754 0 01-.752-.751v-.869a.75.75 0 01.752-.747h.376l.238-2.009a.852.852 0 01.847-.752h1.265c.413 0 .751.339.751.752v2.009h1.737c.413 0 .751.338.751.747v.869a.753.753 0 01-.751.751h-1.737v4.811c0 1.044.376 1.516 1.228 1.516.258 0 .471-.021.688-.038.376-.038.647.213.647.589v1.102a.857.857 0 01-.751.831c-.434.038-.889.059-1.282.059-2.73 0-3.811-1.5-3.811-4.118zM148.607 132.595a.754.754 0 01-.752-.751v-7.951h-.058c-.413 0-.609-.28-.609-.689v-.985c0-.414.258-.669.667-.669h2.522c.413 0 .751.339.751.748v9.546a.753.753 0 01-.751.751h-1.77zm.751-11.796c-1.081 0-1.816-.376-1.816-1.478 0-1.103.731-1.516 1.816-1.516 1.086 0 1.854.397 1.854 1.516s-.752 1.478-1.854 1.478zM153.892 132.595a.753.753 0 01-.751-.751v-9.546a.75.75 0 01.751-.748h1.382c.434 0 .81.318.868.748l.038.213c.63-.689 1.515-1.161 2.542-1.161 2.638 0 3.431 1.441 3.431 3.75v6.744a.753.753 0 01-.751.751h-1.778a.753.753 0 01-.752-.751v-6.506c0-.927-.259-1.341-1.043-1.341-.514 0-.986.318-1.42.773v7.082a.754.754 0 01-.751.752h-1.762v-.009h-.004zM164.207 132.992c0-.413.318-.752.727-.752h1.557c.472 0 .689.376.906.631.213.259.63.493 1.265.493.714 0 1.381-.414 1.381-1.5v-1.281c-.53.572-1.498 1.006-2.442 1.006-2.663 0-3.506-1.361-3.506-4.001v-2.229c0-2.639.847-4.001 3.506-4.001 1.082 0 2.109.572 2.618 1.161l.058-.238c.08-.413.472-.726.906-.726h1.323c.414 0 .752.338.752.747v9.583c0 2.56-1.737 3.867-4.617 3.867-3.119.008-4.434-1.474-4.434-2.748v-.012zm3.152-7.458v1.875c0 1.123.28 1.537 1.081 1.537.514 0 1.103-.318 1.537-.773v-3.411c-.434-.456-1.023-.773-1.537-.773-.805.008-1.081.422-1.081 1.545z" fill="#005DA0"/><path d="M103.271 148.096c-8.524 0-16.39-.752-22.3-2.197-6.166-1.503-10.061-3.72-11.568-6.577a8.588 8.588 0 01-.906-2.605 1.498 1.498 0 011.22-1.737c.817-.142 1.594.4 1.736 1.219.096.564.304 1.14.61 1.72 1.055 2.009 4.478 3.809 9.626 5.065 18.535 4.527 52.52 1.537 62.693-5.52a20.704 20.704 0 002.484-2.017 1.499 1.499 0 012.121.038 1.499 1.499 0 01-.038 2.121 23.45 23.45 0 01-2.859 2.33c-5.298 3.679-16.214 6.452-29.953 7.621-4.35.363-8.687.543-12.862.543l-.004-.004zM91.55 114.932c-.377 0-.76-.142-1.053-.426-5.836-5.721-14.022-14.415-19.88-23.36-7.572-11.57-9.05-20.323-4.387-26.01.009-.008.009-.012.013-.012 0 0 .02-.025.033-.038.013-.013.025-.034.038-.046 5.765-6.744 17.408-5.512 34.607 3.662 9.205 4.915 17.646 10.903 21.453 13.718.776-6.318 3.356-21.848 10.29-26.512 2.183-1.474 4.596-1.804 7.176-.986 3.286 1.036 6.329 4.865 9.038 11.383 2.309 5.546 4.3 12.82 5.757 21.038a1.498 1.498 0 01-1.219 1.737 1.498 1.498 0 01-1.737-1.22c-2.918-16.502-8.04-28.59-12.745-30.077-1.686-.53-3.189-.33-4.596.618-6.132 4.125-8.758 20.84-9.259 26.933a1.502 1.502 0 01-.893 1.253c-.505.221-1.09.15-1.524-.196-11.797-9.233-44.534-30.713-54.102-19.36-9.18 11.2 16.072 37.524 24.041 45.337.589.576.601 1.532.02 2.121-.295.297-.68.447-1.068.447l-.004-.004zM161.527 118.122c-.238 0-.48-.058-.706-.175a1.503 1.503 0 01-.617-2.03c4.746-8.856 8.265-18.494 10.507-28.708-2.43 3.236-5.94 6.347-10.795 7.366a1.507 1.507 0 01-1.779-1.16 1.507 1.507 0 011.161-1.78c6.704-1.407 10.465-7.854 12.11-11.575a1.825 1.825 0 012.213-1.023 1.838 1.838 0 011.302 2.084c-2.108 12.995-6.17 25.18-12.077 36.22a1.493 1.493 0 01-1.323.785l.004-.004z" fill="#C6D400"/><path d="M142.654 89.898c-.284 0-.572-.083-.831-.254-5.347-3.554-11.146-8.974-17.224-16.115l-.092-.117-29.756-42.6c3.987 13.587 11.468 42.542 7.456 56.685a1.506 1.506 0 01-1.854 1.036 1.506 1.506 0 01-1.035-1.854c1.866-6.59 1.169-18.19-2.029-33.552-3.039-14.603-7.176-27.256-7.635-28.65a1.793 1.793 0 01.906-2.184 1.815 1.815 0 012.308.585l34.065 48.76c5.886 6.898 11.455 12.122 16.552 15.513.689.459.877 1.386.422 2.083-.284.435-.76.668-1.245.668l-.008-.004zM76.917 120.494c-.208 0-.421-.046-.622-.138l-46.42-21.305a1.875 1.875 0 01-1.023-2.238c.267-.902 1.127-1.474 2.062-1.336 10.465 1.453 44.784 3.27 60.084-1.27a1.506 1.506 0 011.866 1.011 1.507 1.507 0 01-1.01 1.867c-8.9 2.639-23.035 3.094-33.33 3.002-8.265-.071-15.8-.484-21.24-.935l40.26 18.469a1.507 1.507 0 01.738 1.992 1.52 1.52 0 01-1.369.877l.004.004zM101.184 169.179a1.911 1.911 0 01-1.69-1.036 1.89 1.89 0 01.597-2.438c3.022-2.113 8.186-6.59 8.812-12.816.493-4.889-1.862-10.105-6.988-15.504a1.506 1.506 0 01.05-2.121 1.505 1.505 0 012.121.05c5.756 6.063 8.382 12.076 7.798 17.872-.447 4.447-2.747 8.08-5.256 10.798 15.696-6.556 29.159-16.126 40.084-28.516a1.5 1.5 0 012.121-.129c.622.551.68 1.499.129 2.121-12.59 14.269-28.45 24.904-47.127 31.602a1.811 1.811 0 01-.647.117h-.004z" fill="#C6D400"/></svg>